<svg width="36" height="50" viewBox="0 0 36 50" fill="none" xmlns="http://www.w3.org/2000/svg">
<path d="M19.2605 35.0396C18.8027 35.8269 17.6581 35.8269 17.2003 35.0396L3.29454 11.1273C2.83674 10.34 3.40899 9.35598 4.3246 9.35598L32.1362 9.35598C33.0518 9.35598 33.6241 10.34 33.1663 11.1273L19.2605 35.0396Z" fill="#9C8CF8"/>
<g filter="url(#filter0_b_134_1463)">
<path d="M19.1392 49.2099C18.6814 49.9971 17.5369 49.9971 17.0791 49.2099L0.598094 20.8693C0.14029 20.082 0.712545 19.098 1.62815 19.098L34.5901 19.098C35.5057 19.098 36.0779 20.082 35.6201 20.8693L19.1392 49.2099Z" fill="url(#paint0_linear_134_1463)" fill-opacity="0.3"/>
<path d="M18.7069 48.9585C18.4419 49.4142 17.7763 49.4142 17.5113 48.9585L1.03032 20.6179C0.769511 20.1694 1.09185 19.598 1.62815 19.598L34.5901 19.598C35.1264 19.598 35.4487 20.1694 35.1879 20.6179L18.7069 48.9585Z" stroke="white"/>
</g>
<g filter="url(#filter1_b_134_1463)">
<path d="M18.6656 16.4183C18.4191 16.8422 17.8028 16.8422 17.5563 16.4183L8.68194 1.15803C8.43543 0.734132 8.74356 0.204263 9.23658 0.204263L26.9853 0.204264C27.4783 0.204264 27.7865 0.734136 27.54 1.15803L18.6656 16.4183Z" fill="url(#paint1_linear_134_1463)" fill-opacity="0.3"/>
<path d="M18.2334 16.167C18.1796 16.2594 18.0422 16.2594 17.9885 16.167L9.11416 0.906676C9.06465 0.82153 9.12287 0.704262 9.23658 0.704262L26.9853 0.704264C27.099 0.704264 27.1572 0.821531 27.1077 0.906678L18.2334 16.167Z" stroke="white"/>
</g>
<g filter="url(#filter2_b_134_1463)">
<mask id="path-6-inside-1_134_1463" fill="white">
<path fill-rule="evenodd" clip-rule="evenodd" d="M0.7011 20.8102L17.1821 49.1508C17.5941 49.8593 18.6241 49.8593 19.0362 49.1508L35.5171 20.8102C35.9291 20.1017 35.4141 19.2161 34.5901 19.2161L1.62815 19.2161C0.804107 19.2161 0.289075 20.1017 0.7011 20.8102ZM17.0791 49.2099C17.5369 49.9971 18.6814 49.9971 19.1392 49.2099L35.6201 20.8693C36.0779 20.082 35.5057 19.098 34.5901 19.098L1.62815 19.098C0.712545 19.098 0.14029 20.082 0.598094 20.8693L17.0791 49.2099Z"/>
</mask>
<path fill-rule="evenodd" clip-rule="evenodd" d="M0.7011 20.8102L17.1821 49.1508C17.5941 49.8593 18.6241 49.8593 19.0362 49.1508L35.5171 20.8102C35.9291 20.1017 35.4141 19.2161 34.5901 19.2161L1.62815 19.2161C0.804107 19.2161 0.289075 20.1017 0.7011 20.8102ZM17.0791 49.2099C17.5369 49.9971 18.6814 49.9971 19.1392 49.2099L35.6201 20.8693C36.0779 20.082 35.5057 19.098 34.5901 19.098L1.62815 19.098C0.712545 19.098 0.14029 20.082 0.598094 20.8693L17.0791 49.2099Z" fill="url(#paint2_linear_134_1463)"/>
<path fill-rule="evenodd" clip-rule="evenodd" d="M0.7011 20.8102L17.1821 49.1508C17.5941 49.8593 18.6241 49.8593 19.0362 49.1508L35.5171 20.8102C35.9291 20.1017 35.4141 19.2161 34.5901 19.2161L1.62815 19.2161C0.804107 19.2161 0.289075 20.1017 0.7011 20.8102ZM17.0791 49.2099C17.5369 49.9971 18.6814 49.9971 19.1392 49.2099L35.6201 20.8693C36.0779 20.082 35.5057 19.098 34.5901 19.098L1.62815 19.098C0.712545 19.098 0.14029 20.082 0.598094 20.8693L17.0791 49.2099Z" fill="url(#paint3_radial_134_1463)"/>
<path d="M17.1821 49.1508L16.9227 49.3016L16.9227 49.3016L17.1821 49.1508ZM0.7011 20.8102L0.960437 20.6594L0.960437 20.6594L0.7011 20.8102ZM19.0362 49.1508L19.2955 49.3016L19.2955 49.3016L19.0362 49.1508ZM35.5171 20.8102L35.2578 20.6594L35.2578 20.6594L35.5171 20.8102ZM19.1392 49.2099L19.3985 49.3607L19.3985 49.3607L19.1392 49.2099ZM17.0791 49.2099L17.3384 49.059L17.3384 49.059L17.0791 49.2099ZM35.6201 20.8693L35.3608 20.7185L35.3608 20.7185L35.6201 20.8693ZM0.598094 20.8693L0.338757 21.0201L0.338757 21.0201L0.598094 20.8693ZM17.4414 49L0.960437 20.6594L0.441763 20.961L16.9227 49.3016L17.4414 49ZM18.7768 49C18.4805 49.5096 17.7377 49.5096 17.4414 49L16.9227 49.3016C17.4504 50.2091 18.7678 50.2091 19.2955 49.3016L18.7768 49ZM35.2578 20.6594L18.7768 49L19.2955 49.3016L35.7765 20.9611L35.2578 20.6594ZM34.5901 19.5161C35.1865 19.5161 35.5516 20.1542 35.2578 20.6594L35.7765 20.9611C36.3067 20.0493 35.6417 18.9161 34.5901 18.9161L34.5901 19.5161ZM1.62815 19.5161L34.5901 19.5161L34.5901 18.9161L1.62815 18.9161L1.62815 19.5161ZM0.960437 20.6594C0.66661 20.1542 1.03169 19.5161 1.62815 19.5161L1.62815 18.9161C0.576522 18.9161 -0.0884592 20.0493 0.441764 20.961L0.960437 20.6594ZM18.8798 49.0591C18.5377 49.6474 17.6805 49.6474 17.3384 49.059L16.8197 49.3607C17.3932 50.3468 18.825 50.3468 19.3985 49.3607L18.8798 49.0591ZM35.3608 20.7185L18.8798 49.0591L19.3985 49.3607L35.8795 21.0201L35.3608 20.7185ZM34.5901 19.398C35.2781 19.398 35.7004 20.1345 35.3608 20.7185L35.8795 21.0201C36.4555 20.0296 35.7333 18.798 34.5901 18.798L34.5901 19.398ZM1.62815 19.398L34.5901 19.398L34.5901 18.798L1.62815 18.798L1.62815 19.398ZM0.857431 20.7185C0.517824 20.1345 0.94013 19.398 1.62815 19.398L1.62815 18.798C0.48496 18.798 -0.237243 20.0296 0.338757 21.0201L0.857431 20.7185ZM17.3384 49.059L0.857431 20.7185L0.338757 21.0201L16.8197 49.3607L17.3384 49.059Z" fill="white" mask="url(#path-6-inside-1_134_1463)"/>
</g>
<defs>
<filter id="filter0_b_134_1463" x="-1.55351" y="17.1075" width="39.3253" height="34.6833" filterUnits="userSpaceOnUse" color-interpolation-filters="sRGB">
<feFlood flood-opacity="0" result="BackgroundImageFix"/>
<feGaussianBlur in="BackgroundImageFix" stdDeviation="0.995261"/>
<feComposite in2="SourceAlpha" operator="in" result="effect1_backgroundBlur_134_1463"/>
<feBlend mode="normal" in="SourceGraphic" in2="effect1_backgroundBlur_134_1463" result="shape"/>
</filter>
<filter id="filter1_b_134_1463" x="6.60469" y="-1.78624" width="23.0125" height="20.513" filterUnits="userSpaceOnUse" color-interpolation-filters="sRGB">
<feFlood flood-opacity="0" result="BackgroundImageFix"/>
<feGaussianBlur in="BackgroundImageFix" stdDeviation="0.995261"/>
<feComposite in2="SourceAlpha" operator="in" result="effect1_backgroundBlur_134_1463"/>
<feBlend mode="normal" in="SourceGraphic" in2="effect1_backgroundBlur_134_1463" result="shape"/>
</filter>
<filter id="filter2_b_134_1463" x="-3.25967" y="15.4013" width="42.7376" height="38.0956" filterUnits="userSpaceOnUse" color-interpolation-filters="sRGB">
<feFlood flood-opacity="0" result="BackgroundImageFix"/>
<feGaussianBlur in="BackgroundImageFix" stdDeviation="1.84834"/>
<feComposite in2="SourceAlpha" operator="in" result="effect1_backgroundBlur_134_1463"/>
<feBlend mode="normal" in="SourceGraphic" in2="effect1_backgroundBlur_134_1463" result="shape"/>
</filter>
<linearGradient id="paint0_linear_134_1463" x1="31.999" y1="46.9676" x2="-3.69593" y2="25.6908" gradientUnits="userSpaceOnUse">
<stop stop-color="#85D0FF"/>
<stop offset="1" stop-color="white" stop-opacity="0.9"/>
</linearGradient>
<linearGradient id="paint1_linear_134_1463" x1="25.5901" y1="15.211" x2="6.36977" y2="3.75424" gradientUnits="userSpaceOnUse">
<stop stop-color="#85D0FF"/>
<stop offset="1" stop-color="white" stop-opacity="0.9"/>
</linearGradient>
<linearGradient id="paint2_linear_134_1463" x1="30.6948" y1="50.8968" x2="0.095635" y2="30.3299" gradientUnits="userSpaceOnUse">
<stop offset="0.188941" stop-color="#E7F0FF" stop-opacity="0.523483"/>
<stop offset="0.526042" stop-color="#88A4FF"/>
<stop offset="1" stop-color="white" stop-opacity="0.1"/>
</linearGradient>
<radialGradient id="paint3_radial_134_1463" cx="0" cy="0" r="1" gradientUnits="userSpaceOnUse" gradientTransform="translate(30.4992 20.1031) rotate(133.014) scale(25.6187 42.7153)">
<stop stop-color="white"/>
<stop offset="1" stop-color="white" stop-opacity="0"/>
</radialGradient>
</defs>
</svg>
