<svg width="40" height="52" viewBox="0 0 40 52" fill="none" xmlns="http://www.w3.org/2000/svg">
<path d="M16.1657 31.9733C20.417 30.299 23.4254 26.1597 23.4254 21.3187C23.4254 14.9957 18.2933 9.87 11.9627 9.87C5.63202 9.87 0.5 14.9957 0.5 21.3187C0.5 26.1597 3.50834 30.299 7.7597 31.9733V46.4563C7.7597 46.7324 7.86949 46.9971 8.06491 47.1923L11.2258 50.3493C11.6328 50.7558 12.2926 50.7558 12.6995 50.3493L15.8605 47.1923C16.0559 46.9971 16.1657 46.7324 16.1657 46.4563V31.9733Z" fill="#9C8CF8"/>
<g filter="url(#filter0_b_134_1460)">
<path d="M29.2829 25.7464C33.0846 20.9716 33.7974 14.1738 30.5574 8.57136C26.3256 1.25397 16.9532 -1.25316 9.6236 2.97154C2.29396 7.19624 -0.217364 16.553 4.01441 23.8704C7.25438 29.4728 13.5077 32.2555 19.5505 31.356L29.3163 48.2425C29.4545 48.4815 29.6821 48.6559 29.949 48.7273L36.2015 50.3999C36.7573 50.5486 37.3286 50.2191 37.4776 49.664L39.1528 43.4228C39.2243 43.156 39.1869 42.8718 39.0486 42.6327L29.2829 25.7464Z" fill="url(#paint0_linear_134_1460)" fill-opacity="0.3"/>
<path d="M28.8918 25.4349L28.6795 25.7016L28.8501 25.9967L38.6157 42.883C38.6876 43.0072 38.707 43.1547 38.6698 43.2932L36.9947 49.5344C36.9174 49.8225 36.6204 49.9944 36.3307 49.9169L30.0782 48.2443C29.9392 48.2071 29.8209 48.1164 29.7491 47.9922L19.9834 31.1057L19.8132 30.8114L19.4769 30.8615C13.6298 31.7318 7.5809 29.0386 4.44724 23.62C0.354051 16.5423 2.78279 7.49159 9.87328 3.40474C16.9643 -0.682404 26.0311 1.74342 30.1245 8.82168C33.2581 14.2401 32.5697 20.8156 28.8918 25.4349Z" stroke="white"/>
</g>
<g filter="url(#filter1_b_134_1460)">
<path fill-rule="evenodd" clip-rule="evenodd" d="M29.1572 25.7371L29.2014 25.6816C32.9773 20.9392 33.685 14.1876 30.4671 8.62342C26.2642 1.3558 16.9555 -1.1343 9.67568 3.06169C2.39588 7.25766 -0.0983245 16.5507 4.10464 23.8183C7.32249 29.3825 13.5332 32.1464 19.5352 31.2531L19.6053 31.2426L29.4065 48.1905C29.5309 48.4056 29.7358 48.5625 29.976 48.6268L36.2285 50.2993C36.7287 50.4332 37.2429 50.1367 37.377 49.6371L39.0521 43.3958C39.1165 43.1558 39.0828 42.9 38.9583 42.6848L29.1572 25.7371ZM29.2829 25.7464L39.0486 42.6327C39.1869 42.8718 39.2243 43.156 39.1528 43.4228L37.4776 49.664C37.3286 50.2191 36.7573 50.5486 36.2015 50.3999L29.949 48.7273C29.6821 48.6559 29.4545 48.4815 29.3163 48.2425L19.5505 31.356C13.5077 32.2555 7.25438 29.4728 4.01441 23.8704C-0.217364 16.553 2.29396 7.19624 9.6236 2.97154C16.9532 -1.25316 26.3256 1.25397 30.5574 8.57136C33.7974 14.1738 33.0846 20.9716 29.2829 25.7464Z" fill="url(#paint1_linear_134_1460)"/>
<path fill-rule="evenodd" clip-rule="evenodd" d="M29.1572 25.7371L29.2014 25.6816C32.9773 20.9392 33.685 14.1876 30.4671 8.62342C26.2642 1.3558 16.9555 -1.1343 9.67568 3.06169C2.39588 7.25766 -0.0983245 16.5507 4.10464 23.8183C7.32249 29.3825 13.5332 32.1464 19.5352 31.2531L19.6053 31.2426L29.4065 48.1905C29.5309 48.4056 29.7358 48.5625 29.976 48.6268L36.2285 50.2993C36.7287 50.4332 37.2429 50.1367 37.377 49.6371L39.0521 43.3958C39.1165 43.1558 39.0828 42.9 38.9583 42.6848L29.1572 25.7371ZM29.2829 25.7464L39.0486 42.6327C39.1869 42.8718 39.2243 43.156 39.1528 43.4228L37.4776 49.664C37.3286 50.2191 36.7573 50.5486 36.2015 50.3999L29.949 48.7273C29.6821 48.6559 29.4545 48.4815 29.3163 48.2425L19.5505 31.356C13.5077 32.2555 7.25438 29.4728 4.01441 23.8704C-0.217364 16.553 2.29396 7.19624 9.6236 2.97154C16.9532 -1.25316 26.3256 1.25397 30.5574 8.57136C33.7974 14.1738 33.0846 20.9716 29.2829 25.7464Z" fill="url(#paint2_radial_134_1460)"/>
</g>
<ellipse cx="13.8384" cy="9.66181" rx="1.87571" ry="1.87342" fill="white"/>
<defs>
<filter id="filter0_b_134_1460" x="-1.28094" y="-2.32037" width="43.7089" height="55.9956" filterUnits="userSpaceOnUse" color-interpolation-filters="sRGB">
<feFlood flood-opacity="0" result="BackgroundImageFix"/>
<feGaussianBlur in="BackgroundImageFix" stdDeviation="1.61984"/>
<feComposite in2="SourceAlpha" operator="in" result="effect1_backgroundBlur_134_1460"/>
<feBlend mode="normal" in="SourceGraphic" in2="effect1_backgroundBlur_134_1460" result="shape"/>
</filter>
<filter id="filter1_b_134_1460" x="-1.28094" y="-2.32037" width="43.7089" height="55.9956" filterUnits="userSpaceOnUse" color-interpolation-filters="sRGB">
<feFlood flood-opacity="0" result="BackgroundImageFix"/>
<feGaussianBlur in="BackgroundImageFix" stdDeviation="1.61984"/>
<feComposite in2="SourceAlpha" operator="in" result="effect1_backgroundBlur_134_1460"/>
<feBlend mode="normal" in="SourceGraphic" in2="effect1_backgroundBlur_134_1460" result="shape"/>
</filter>
<linearGradient id="paint0_linear_134_1460" x1="5.94271" y1="5.48778" x2="50.194" y2="22.7151" gradientUnits="userSpaceOnUse">
<stop stop-color="#85D0FF"/>
<stop offset="1" stop-color="white" stop-opacity="0.9"/>
</linearGradient>
<linearGradient id="paint1_linear_134_1460" x1="7.3165" y1="-0.849126" x2="46.5487" y2="16.3733" gradientUnits="userSpaceOnUse">
<stop offset="0.188941" stop-color="#E7F0FF" stop-opacity="0.523483"/>
<stop offset="0.526042" stop-color="#88A4FF"/>
<stop offset="1" stop-color="#B4D2FF" stop-opacity="0.1"/>
</linearGradient>
<radialGradient id="paint2_radial_134_1460" cx="0" cy="0" r="1" gradientUnits="userSpaceOnUse" gradientTransform="translate(7.52257 48.8145) rotate(-58.6443) scale(35.3776 52.5482)">
<stop stop-color="white"/>
<stop offset="1" stop-color="white" stop-opacity="0"/>
</radialGradient>
</defs>
</svg>
