<svg width="65" height="46" viewBox="0 0 65 46" fill="none" xmlns="http://www.w3.org/2000/svg">
<g filter="url(#filter0_b_134_1467)">
<path d="M0.953613 16.1381C0.953613 12.2412 4.66634 9.19423 8.95025 9.57532L36.3877 12.0161C40.1168 12.3479 42.9596 15.1867 42.9596 18.5789V30.9527C42.9596 34.3739 40.0695 37.2269 36.3045 37.5224L8.86712 39.6761C4.61179 40.0101 0.953613 36.9731 0.953613 33.1063V16.1381Z" fill="url(#paint0_linear_134_1467)" fill-opacity="0.3"/>
<path d="M1.45361 16.1381C1.45361 12.5867 4.86031 9.71346 8.90595 10.0734L36.3434 12.5142C39.8561 12.8267 42.4596 15.4854 42.4596 18.5789V30.9527C42.4596 34.0725 39.8125 36.7455 36.2654 37.024L8.82799 39.1776C4.80985 39.493 1.45361 36.6305 1.45361 33.1063V16.1381Z" stroke="white"/>
</g>
<g filter="url(#filter1_b_134_1467)">
<path fill-rule="evenodd" clip-rule="evenodd" d="M36.3758 12.1255L8.93838 9.6847C4.72586 9.30996 1.07502 12.3062 1.07502 16.1381V33.1063C1.07502 36.9087 4.67223 39.895 8.85663 39.5666L36.294 37.4129C39.9963 37.1223 42.8382 34.3169 42.8382 30.9527V18.5789C42.8382 15.2432 40.0428 12.4517 36.3758 12.1255ZM8.95025 9.57532C4.66634 9.19423 0.953613 12.2412 0.953613 16.1381V33.1063C0.953613 36.9731 4.61179 40.0101 8.86712 39.6761L36.3045 37.5224C40.0695 37.2269 42.9596 34.3739 42.9596 30.9527V18.5789C42.9596 15.1867 40.1168 12.3479 36.3877 12.0161L8.95025 9.57532Z" fill="url(#paint1_linear_134_1467)"/>
<path fill-rule="evenodd" clip-rule="evenodd" d="M36.3758 12.1255L8.93838 9.6847C4.72586 9.30996 1.07502 12.3062 1.07502 16.1381V33.1063C1.07502 36.9087 4.67223 39.895 8.85663 39.5666L36.294 37.4129C39.9963 37.1223 42.8382 34.3169 42.8382 30.9527V18.5789C42.8382 15.2432 40.0428 12.4517 36.3758 12.1255ZM8.95025 9.57532C4.66634 9.19423 0.953613 12.2412 0.953613 16.1381V33.1063C0.953613 36.9731 4.61179 40.0101 8.86712 39.6761L36.3045 37.5224C40.0695 37.2269 42.9596 34.3739 42.9596 30.9527V18.5789C42.9596 15.1867 40.1168 12.3479 36.3877 12.0161L8.95025 9.57532Z" fill="url(#paint2_radial_134_1467)"/>
</g>
<path d="M26.3477 40.9872C26.3477 32.4563 33.2633 25.5406 41.7942 25.5406H49.0541C57.585 25.5406 64.5007 32.4563 64.5007 40.9872C64.5007 43.5465 62.426 45.6212 59.8667 45.6212H30.9816C28.4224 45.6212 26.3477 43.5465 26.3477 40.9872Z" fill="#9C8CF8"/>
<g filter="url(#filter2_b_134_1467)">
<path d="M53.4565 14.2955C53.4565 18.7316 49.8604 22.3277 45.4243 22.3277C40.9882 22.3277 37.3921 18.7316 37.3921 14.2955C37.3921 9.85945 40.9882 6.26331 45.4243 6.26331C49.8604 6.26331 53.4565 9.85945 53.4565 14.2955Z" fill="url(#paint3_linear_134_1467)" fill-opacity="0.3"/>
<path d="M52.9565 14.2955C52.9565 18.4555 49.5842 21.8277 45.4243 21.8277C41.2644 21.8277 37.8921 18.4555 37.8921 14.2955C37.8921 10.1356 41.2644 6.76331 45.4243 6.76331C49.5842 6.76331 52.9565 10.1356 52.9565 14.2955Z" stroke="white"/>
</g>
<path d="M37.1325 9.73785C37.1325 5.21713 40.7973 1.55235 45.318 1.55235C49.8387 1.55235 53.5035 5.21713 53.5035 9.73785V10.9072H51.2817C50.9588 10.9072 50.697 11.169 50.697 11.4919V18.508C50.697 18.8309 50.9588 19.0927 51.2817 19.0927H52.3341C53.6258 19.0927 54.6729 18.0456 54.6729 16.754V9.73785C54.6729 4.57131 50.4845 0.382996 45.318 0.382996C40.1514 0.382996 35.9631 4.57131 35.9631 9.73785V16.754C35.9631 18.0456 37.0102 19.0927 38.3018 19.0927H39.3543C39.6772 19.0927 39.9389 18.8309 39.9389 18.508V11.4919C39.9389 11.169 39.6772 10.9072 39.3543 10.9072H37.1325V9.73785Z" fill="#9C8CF8"/>
<path d="M14.6278 27.9919L9.00791 28.003V26.9389L11.6571 24.6998C11.9306 24.4707 12.1596 24.2601 12.3444 24.0679C12.5365 23.8758 12.688 23.6948 12.7989 23.5248C12.9097 23.3548 12.991 23.1849 13.0427 23.0149C13.0944 22.8449 13.1203 22.6602 13.1203 22.4607C13.1203 22.0025 13.0021 21.6478 12.7656 21.3965C12.5291 21.1453 12.1966 21.0197 11.768 21.0197C11.3246 21.0197 10.9736 21.1675 10.7149 21.4631C10.4563 21.7586 10.3233 22.1651 10.3159 22.6824H8.90814C8.91553 22.0912 9.03746 21.5776 9.27394 21.1416C9.51041 20.6982 9.84295 20.3583 10.2716 20.1218C10.7002 19.878 11.199 19.756 11.768 19.756C12.3444 19.756 12.8395 19.8632 13.2533 20.0775C13.6745 20.2844 13.9997 20.5837 14.2288 20.9753C14.4579 21.367 14.5724 21.8362 14.5724 22.3831C14.5724 22.6639 14.5318 22.9336 14.4505 23.1923C14.3766 23.4435 14.262 23.6911 14.1068 23.9349C13.9517 24.1714 13.7595 24.4116 13.5304 24.6554C13.3014 24.8993 13.0316 25.1542 12.7213 25.4203L10.7482 27.1051L10.2383 26.6728H14.6278V27.9919ZM20.6703 19.9001V28.003H19.3291V19.9001H20.6703ZM15.2167 25.2207L18.8857 19.9001H20.3821L16.6577 25.3094L15.2167 25.2207ZM21.6569 26.4622H15.2167V25.2207H21.6569V26.4622ZM23.4136 28.003H22.0724L25.2315 19.9112H26.5838L23.4136 28.003ZM27.1077 19.9001H32.9272V21.2081H27.1077V19.9001ZM31.8187 20.4987L32.9272 21.2081L29.9897 28.003H28.5155L31.8187 20.4987Z" fill="white"/>
<defs>
<filter id="filter0_b_134_1467" x="-6.42599" y="2.16349" width="56.7651" height="44.9173" filterUnits="userSpaceOnUse" color-interpolation-filters="sRGB">
<feFlood flood-opacity="0" result="BackgroundImageFix"/>
<feGaussianBlur in="BackgroundImageFix" stdDeviation="3.6898"/>
<feComposite in2="SourceAlpha" operator="in" result="effect1_backgroundBlur_134_1467"/>
<feBlend mode="normal" in="SourceGraphic" in2="effect1_backgroundBlur_134_1467" result="shape"/>
</filter>
<filter id="filter1_b_134_1467" x="-6.42599" y="2.16349" width="56.7651" height="44.9173" filterUnits="userSpaceOnUse" color-interpolation-filters="sRGB">
<feFlood flood-opacity="0" result="BackgroundImageFix"/>
<feGaussianBlur in="BackgroundImageFix" stdDeviation="3.6898"/>
<feComposite in2="SourceAlpha" operator="in" result="effect1_backgroundBlur_134_1467"/>
<feBlend mode="normal" in="SourceGraphic" in2="effect1_backgroundBlur_134_1467" result="shape"/>
</filter>
<filter id="filter2_b_134_1467" x="31.0765" y="-0.0522609" width="28.6956" height="28.6956" filterUnits="userSpaceOnUse" color-interpolation-filters="sRGB">
<feFlood flood-opacity="0" result="BackgroundImageFix"/>
<feGaussianBlur in="BackgroundImageFix" stdDeviation="3.15778"/>
<feComposite in2="SourceAlpha" operator="in" result="effect1_backgroundBlur_134_1467"/>
<feBlend mode="normal" in="SourceGraphic" in2="effect1_backgroundBlur_134_1467" result="shape"/>
</filter>
<linearGradient id="paint0_linear_134_1467" x1="5.44872" y1="12.3255" x2="43.2715" y2="39.6035" gradientUnits="userSpaceOnUse">
<stop stop-color="#85D0FF"/>
<stop offset="1" stop-color="white" stop-opacity="0.9"/>
</linearGradient>
<linearGradient id="paint1_linear_134_1467" x1="6.99875" y1="8.46601" x2="38.7775" y2="34.3097" gradientUnits="userSpaceOnUse">
<stop offset="0.188941" stop-color="#E7F0FF" stop-opacity="0.523483"/>
<stop offset="0.526042" stop-color="#88A4FF"/>
<stop offset="1" stop-color="#B4D2FF" stop-opacity="0.1"/>
</linearGradient>
<radialGradient id="paint2_radial_134_1467" cx="0" cy="0" r="1" gradientUnits="userSpaceOnUse" gradientTransform="translate(7.23126 38.7139) rotate(-41.5369) scale(27.7484 46.0392)">
<stop stop-color="white"/>
<stop offset="1" stop-color="white" stop-opacity="0"/>
</radialGradient>
<linearGradient id="paint3_linear_134_1467" x1="39.1112" y1="7.74544" x2="56.4506" y2="16.7236" gradientUnits="userSpaceOnUse">
<stop stop-color="#85D0FF"/>
<stop offset="1" stop-color="white" stop-opacity="0.9"/>
</linearGradient>
</defs>
</svg>
